<?xml version="1.0"?><svg xmlns="http://www.w3.org/2000/svg" width="440" height="440" version="1.2" baseProfile="tiny-ps"><title>FortMesa</title><g transform="translate(-85.519 -103)"><path fill="none" stroke="#d36149" stroke-linejoin="round" stroke-miterlimit="25" stroke-width="30" d="m203.52 376.5 207.84-.5"/><path fill="#d36149" d="M283.52 310h42v63.999h-42z"/><circle cx="305.52" cy="323" r="205" fill="none" stroke="#d36149" stroke-linejoin="round" stroke-miterlimit="25" stroke-width="30"/><path fill="none" stroke="#d36149" stroke-linejoin="round" stroke-miterlimit="25" stroke-width="30" d="M200.52 360.74c-2.221 105.08-39.509 114.77-39.509 114.77"/><g fill="none" stroke="#d36149" stroke-miterlimit="25" stroke-width="24"><path d="M245.52 243h40v-19h33"/><path d="M222.52 371v-76l-28-12v-59h41v19h20m86 0h-15v-19h-26"/><path d="M389.52 371v-76l28-12v-59h-42v19h-38"/></g><path fill="none" stroke="#d36149" stroke-linejoin="round" stroke-miterlimit="25" stroke-width="30" d="M412.52 360.74c2.221 105.08 38 114.26 38 114.26"/></g></svg>
